<?xml version="1.0" encoding="UTF-8" standalone="no"?>
<svg xmlns="http://www.w3.org/2000/svg"
   xmlns:dc="http://purl.org/dc/elements/1.1/"
   xmlns:cc="http://creativecommons.org/ns#"
   xmlns:rdf="http://www.w3.org/1999/02/22-rdf-syntax-ns#"
   width="614" height="692" viewBox="0 0 307 346">
  <metadata>
    <rdf:RDF>
      <cc:Work rdf:about="">
        <dc:format>image/svg+xml</dc:format>
        <dc:type rdf:resource="http://purl.org/dc/dcmitype/StillImage" />
        <dc:title>Steinway logo</dc:title>
      </cc:Work>
    </rdf:RDF>
  </metadata>
<path transform="translate(0,346)scale(1,-1)" style="fill:#ffdd55;fill-opacity:1;stroke:none" d="M6.363,105.361
C6.363,149.158,32.644,176.168,49.215,202.865L56.433,214.495
C64.376,227.491,84.272,257.839,84.272,286.735
C84.272,298.708,77.599,315.563,61.418,315.72
C60.466,315.719,59.674,315.674,58.926,315.605
C58.69,315.584,58.468,315.615,56.807,315.262
C51.896,314.219,46.469,309.251,46.469,301.744
C46.469,301.555,46.564,300.223,46.641,299.854
C48.073,301.358,51.28,301.502,52.44,301.502
C53.137,301.502,53.838,301.457,54.401,301.342
C58.201,300.537,61.819,294.399,61.819,289.771
C61.819,281.523,54.361,279.461,50.25,279.461
C43.81,279.461,34.152,283.414,34.152,299.224
C34.152,317.836,47.036,324.66,59.772,324.66
C61.374,324.66,63.565,324.506,64.599,324.375
C65.253,324.293,65.91,324.142,66.547,324.031
C83.734,320.917,95.218,306.108,95.218,288.342
C95.262,286.84,95.274,285.388,95.274,283.931L117.847,283.931V295.847
H123.347V283.931H150.388V306.102
C143.711,307.076,135.839,313.374,135.839,323.229
C135.839,333.315,144.096,340.552,153.142,340.586
C161.706,340.586,170.469,333.757,170.469,323.229
C170.469,315.011,164.617,307.458,155.945,306.102L155.945,283.931
H182.985V295.847H188.485V283.931H211.031
C211.031,285.389,211.044,286.84,211.089,288.342
C211.089,309.212,226.789,324.649,246.014,324.649
C265.077,324.649,272.454,310.037,272.454,299.138
C272.454,288.833,266.385,279.461,256.056,279.461
C251.944,279.461,244.487,281.524,244.487,289.771
C244.487,295.131,247.867,301.521,254.29,301.521
C256.396,301.521,258.794,300.765,259.666,299.854
C259.742,300.224,259.837,301.555,259.837,301.744
C259.837,306.649,256.871,315.694,244.888,315.72
C228.756,315.564,222.033,298.835,222.033,286.735
C222.033,256.693,243.43,225.271,251.646,211.631L257.091,202.865
C277.208,170.479,295.823,148.58,299.37,116.274
C299.485,115.183,299.684,112.517,299.771,110.888
C299.869,109.05,299.942,107.229,299.942,105.361
C298.903,68.373,267.773,43.282,240.999,43.266
C219.036,43.295,198.395,58.577,194.831,74.821L164.238,74.821V42.228H179.878
C188.631,27.068,218.05,19.542,233.271,19.542L233.271,11.923H202.393V7.684
C202.393,6.514,201.442,5.564,200.273,5.564L193.685,5.564
C192.515,5.564,191.565,6.514,191.565,7.684L191.565,11.923H158.567V7.684
C158.567,6.514,157.616,5.564,156.447,5.564L149.859,5.564
C148.689,5.564,147.739,6.514,147.739,7.684L147.739,11.923H114.741V7.684
C114.741,6.514,113.791,5.564,112.621,5.564L106.033,5.564
C104.863,5.564,103.913,6.514,103.913,7.684L103.913,11.923H73.034V19.542
C88.256,19.542,117.675,27.068,126.428,42.228L142.068,42.228V74.821H111.475
C108.185,59.828,88.637,43.301,65.306,43.266
C38.545,43.272,7.404,68.383,6.363,105.361Z
M24.71,105.867
C24.71,72.104,48.535,57.345,70.587,57.345
C84.892,57.345,98.45,63.56,104.274,74.821L90.468,74.821V86.163H105.534
C104.824,100.215,100.803,120.188,81.878,120.188
C70.291,120.188,68.19,115.102,68.19,113.831
C70.814,113.831,77.41,111.78,77.411,103.577
C77.411,98.108,74.824,92.102,66.926,92.102
C57.91,92.102,53.461,97.987,53.461,105.255
C53.461,117.408,64.742,129.969,79.847,129.969
C80.357,129.969,80.872,129.955,81.391,129.926
C82.023,129.891,82.812,129.754,82.969,129.754
C83.4,129.754,111.155,126.91,112.062,86.163L117.847,86.163V134.057
C108.365,139.274,101.692,147.343,101.692,159.035
C101.692,174.219,108.269,183.476,117.847,189.57L117.847,272.926H94.831
C89.945,211.591,24.71,156.253,24.71,105.867Z
M123.347,86.163H150.388V126.323
C141.299,126.556,131.646,128.197,123.347,131.536Z
M123.347,192.604
C129.314,195.444,136.076,197.479,142.94,199.137
C137.361,203.344,130.566,207.212,130.566,221.079
C131.067,235.283,140.356,240.223,150.388,240.729L150.388,272.926H123.347Z
M155.945,171.123
C163.124,173.705,173.008,183.695,182.985,188.023L182.985,272.926H155.945
V240.615
C165.627,239.693,175.21,235.638,175.21,226.583
C175.21,221.215,171.336,218.873,167.536,218.873
C163.679,218.873,159.798,221.337,159.726,226.062
C159.726,228.393,164.08,228.689,164.08,230.36
C164.08,232.079,160.69,232.893,155.945,233.167L155.945,199.595L163.22,195.528
C160.528,194.582,158.086,193.357,155.945,191.861Z
M155.945,86.163H182.985V132.972
C175.426,129.193,166.271,126.738,155.945,126.323Z
M188.485,86.163H194.285
C194.664,103.215,198.34,113.493,209.235,123.232
C213.481,127.028,219.634,130,225.996,130
C239.091,130,253.065,121.068,253.065,106.453
C253.065,104.68,252.854,102.807,252.421,100.833
C251.334,95.876,245.315,92.522,239.633,92.522
C234.12,92.522,228.936,95.674,228.937,103.577
C228.937,111.779,235.288,113.831,238.158,113.831
C238.158,115.102,235.42,120.188,224.469,120.188
C205.895,120.188,201.605,101.957,200.813,86.163L215.879,86.163V74.821H202.073
C206.841,65.601,224.511,55.858,238.616,55.858
C261.88,55.858,281.637,78.086,281.637,105.867
C281.637,156.15,216.409,211.716,211.515,272.926L188.485,272.926V189.746
C189.452,189.924,190.455,190.039,191.447,190.039
C193.548,190.039,195.599,189.521,197.149,187.97L190.676,182.928
C194.384,179.572,204.711,171.874,204.711,161.499
C204.369,151.821,198.352,142.676,188.485,136.123Z
M142.768,221.136
C142.768,210.121,146.926,204.81,150.388,202.288L150.388,232.938
C146.339,231.229,142.768,224.185,142.768,221.136Z
M123.347,142.708
C130.669,137.757,140.688,134.58,150.388,133.083L150.388,161.556
C142.037,162.065,138.876,166.173,138.876,172.282
C138.876,173.242,138.954,174.252,139.103,175.305
C142.097,173.267,146.279,171.284,150.388,170.665L150.388,191.575
C149.647,192.295,148.427,192.604,146.896,192.604
C140.243,192.604,127.735,186.771,123.347,183.555Z
M112.405,160.238
C112.405,155.227,114.458,150.931,117.847,147.291L117.847,178.169
C114.28,173.528,112.405,167.708,112.405,160.238Z
M155.945,132.796
C164.719,133.508,175.229,137.502,182.985,144.082L182.985,176.852
C173.552,175.091,167.88,164,155.945,161.899Z
M188.485,149.869
C191.065,153.306,192.925,157.188,193.641,161.499
C193.641,167.607,190.84,171.82,188.485,174.331Z"/></svg>